<svg width="0" height="0" xmlns="http://www.w3.org/2000/svg">
    <symbol id="icon1" viewBox="0 0 48 58">
        <g transform="translate(-63.958)"><path d="M171.584,8.829h16.209a2.8,2.8,0,0,0,2.794-2.794V2.794A2.8,2.8,0,0,0,187.794,0H171.584a2.8,2.8,0,0,0-2.794,2.794V6.035a2.8,2.8,0,0,0,2.794,2.794Zm-.919-6.035a.921.921,0,0,1,.92-.92h16.209a.921.921,0,0,1,.919.92V6.035a.92.92,0,0,1-.919.919H171.584a.921.921,0,0,1-.92-.919V2.794Z" transform="translate(-91.731)"/><path d="M107.9,27.826H98.282a.937.937,0,0,0,0,1.875H107.9a2.188,2.188,0,0,1,2.186,2.186V78.274A2.188,2.188,0,0,1,107.9,80.46H68.018a2.188,2.188,0,0,1-2.186-2.186V31.886A2.188,2.188,0,0,1,68.018,29.7h9.473a.937.937,0,0,0,0-1.875H68.018a4.065,4.065,0,0,0-4.06,4.06V78.274a4.065,4.065,0,0,0,4.06,4.06H107.9a4.065,4.065,0,0,0,4.06-4.06V31.886A4.065,4.065,0,0,0,107.9,27.826Z" transform="translate(0 -24.349)"/><path d="M143.612,121.372A2.611,2.611,0,0,0,141,118.764H108.768a2.611,2.611,0,0,0-2.608,2.608V147.04a2.611,2.611,0,0,0,2.608,2.608H141a2.611,2.611,0,0,0,2.608-2.608Zm-30.336,26.4h-4.507a.734.734,0,0,1-.734-.734V142.4h5.241Zm0-7.252h-5.241v-5.378h5.241Zm0-7.252h-5.241v-5.378h5.241Zm0-7.252h-5.241v-4.644a.734.734,0,0,1,.734-.734h4.507Zm7.115,21.757H115.15V142.4h5.241Zm0-7.252H115.15v-5.378h5.241Zm0-7.252H115.15v-5.378h5.241Zm0-7.252H115.15v-5.378h5.241Zm7.115,21.757h-5.241V142.4h5.241Zm0-7.252h-5.241v-5.378h5.241Zm0-7.252h-5.241v-5.378h5.241Zm0-7.252h-5.241v-5.378h5.241Zm7.115,21.757h-5.241V142.4h5.241Zm0-7.252h-5.241v-5.378h5.241Zm0-7.252h-5.241v-5.378h5.241Zm0-7.252h-5.241v-5.378h5.241Zm7.115,21.023a.735.735,0,0,1-.734.734H136.5V142.4h5.241v4.644Zm0-6.519H136.5v-5.378h5.241Zm0-7.252H136.5v-5.378h5.241Zm0-7.252H136.5v-5.378H141a.735.735,0,0,1,.734.734v4.644Z" transform="translate(-36.928 -101.922)"/></g>
    </symbol>
    <symbol id="icon2" viewBox="0 0 57 57">
        <path d="M28.667,0A28.667,28.667,0,1,0,57.333,28.667,28.667,28.667,0,0,0,28.667,0Zm0,55.422A26.756,26.756,0,1,1,55.422,28.667,26.756,26.756,0,0,1,28.667,55.422Z"/><path d="M71.307,47.418A23.889,23.889,0,1,0,95.2,71.307,23.888,23.888,0,0,0,71.307,47.418Zm0,45.866A21.978,21.978,0,1,1,93.284,71.307,21.978,21.978,0,0,1,71.307,93.284Z" transform="translate(-42.64 -42.64)"/><path d="M368.99,437.425l-1.655.955-.955-1.655,1.655-.956Z" transform="translate(-329.462 -391.861)"/><path d="M179.325,108.936l-1.655.956-.955-1.655,1.655-.955Z" transform="translate(-158.909 -96.471)"/><path d="M438.408,367.361l-.955,1.655-1.655-.955.956-1.655Z" transform="translate(-391.886 -329.487)"/><path d="M109.9,177.67l-.955,1.656-1.656-.956.955-1.655Z" transform="translate(-96.475 -158.909)"/><path d="M464.684,275.016h1.911v1.911h-1.911Z" transform="translate(-417.862 -247.305)"/><path d="M85.352,275.016h1.911v1.911H85.352Z" transform="translate(-76.752 -247.305)"/><path d="M438.4,178.354l-1.655.955-.955-1.655,1.655-.955Z" transform="translate(-391.878 -158.895)"/><path d="M109.908,368.019l-1.656.955-.955-1.655,1.656-.956Z" transform="translate(-96.486 -329.448)"/><path d="M369,108.264l-.956,1.656-1.655-.956.955-1.655Z" transform="translate(-329.473 -96.496)"/><path d="M179.313,436.776l-.955,1.655-1.655-.955.955-1.656Z" transform="translate(-158.898 -391.906)"/><path d="M275.016,464.684h1.911v1.911h-1.911Z" transform="translate(-247.305 -417.862)"/><path d="M184,101.2V88.219a2.867,2.867,0,0,0-5.733,0v14.7a3.786,3.786,0,0,0-.911,2.061l-6.932,6.932a2.982,2.982,0,0,0,4.218,4.218l6.932-6.932a3.813,3.813,0,0,0,3.382-3.777,3.772,3.772,0,0,0-.542-1.929l11.729-11.728L194.79,90.41Zm-2.867-13.938a.956.956,0,0,1,.956.956v13.513a3.43,3.43,0,0,0-1.911,0V88.219A.956.956,0,0,1,181.132,87.263Zm-7.842,27.513a1.1,1.1,0,0,1-1.516,0,1.076,1.076,0,0,1,0-1.516l6.02-6.02a3.83,3.83,0,0,0,1.515,1.515Zm7.842-7.447a1.911,1.911,0,1,1,1.911-1.911A1.911,1.911,0,0,1,181.132,107.329Z" transform="translate(-152.466 -76.752)"/>
    </symbol>
    <symbol id="icon3" viewBox="0 0 57 57">
        <g transform="translate(-0.999 -0.001)"><path d="M54.51,25.8H52.6V10.513a.955.955,0,0,0-.956-.955H45.855l-1.9-6.02A.955.955,0,0,0,42.7,2.932L34.921,5.9,31.426.442a.953.953,0,0,0-.605-.419A.934.934,0,0,0,30.1.157l-14.347,9.4H7.688A6.7,6.7,0,0,0,1,16.246v34.4a6.7,6.7,0,0,0,6.689,6.689H51.643a.956.956,0,0,0,.956-.956V44.913H54.51a3.822,3.822,0,0,0,3.822-3.822V29.624A3.822,3.822,0,0,0,54.51,25.8Zm0,1.911a1.911,1.911,0,1,1,0,3.822H52.6V27.713ZM50.687,11.469v9.555h-1.21l-3.018-9.555Zm-3.214,9.555H44.688l-2.649-7.946a.955.955,0,0,0-.907-.654,3.632,3.632,0,0,1-2.587-1.071l-.56-.56a.956.956,0,0,0-1.007-.221L8.707,21.024H7.688A4.763,4.763,0,0,1,4.3,19.607L42.438,5.083Zm-4.8,0H14.216l22.851-8.447.126.127a5.523,5.523,0,0,0,3.235,1.587ZM30.335,2.287,33.093,6.6,10.806,15.082ZM7.688,11.469h5.146L3.189,17.788a4.716,4.716,0,0,1-.278-1.542A4.783,4.783,0,0,1,7.688,11.469Zm43,43.955h-43A4.784,4.784,0,0,1,2.91,50.646V20.928c.009.008.019.016.028.026.075.074.154.143.232.214s.16.152.245.223.167.128.251.191.174.136.266.2.181.111.271.167.186.118.286.172.2.1.294.144.191.1.292.141.217.081.326.12.191.077.292.107c.12.039.244.066.367.1.1.023.183.052.276.071.141.029.287.046.429.067.08.011.158.028.239.036a6.829,6.829,0,0,0,.683.033H8.931l.014.036.1-.036H50.687v8.6H40.176a6.689,6.689,0,0,0,0,13.378H50.687Zm5.733-14.333A1.911,1.911,0,0,1,54.51,43H40.176a4.778,4.778,0,0,1,0-9.555H54.51a3.8,3.8,0,0,0,.686-.07c.054-.009.108-.02.161-.033a3.81,3.81,0,0,0,.632-.2l.033-.016a3.779,3.779,0,0,0,.4-.2Z" transform="translate(0 0)"/><path d="M336.8,420.316h3.822v1.911H336.8Z" transform="translate(-315.184 -394.514)"/><path d="M212.273,420.316h3.822v1.911h-3.822Z" transform="translate(-198.305 -394.514)"/><path d="M710.388,420.316h3.275v1.911h-3.275Z" transform="translate(-665.843 -394.514)"/><path d="M585.861,420.316h3.822v1.911h-3.822Z" transform="translate(-548.96 -394.514)"/><path d="M84.755,418.135l-.447,1.854a6.805,6.805,0,0,0,1.575.191H88.34v-1.911H85.883A4.916,4.916,0,0,1,84.755,418.135Z" transform="translate(-78.195 -392.467)"/><path d="M461.326,420.316h3.822v1.911h-3.822Z" transform="translate(-432.069 -394.514)"/><path d="M84.755,822.854l-.447,1.854a6.787,6.787,0,0,0,1.575.192H88.34v-1.911H85.883A4.9,4.9,0,0,1,84.755,822.854Z" transform="translate(-78.195 -772.342)"/><path d="M710.388,825.035h3.275v1.911h-3.275Z" transform="translate(-665.843 -774.389)"/><path d="M336.8,825.035h3.822v1.911H336.8Z" transform="translate(-315.184 -774.389)"/><path d="M585.861,825.035h3.822v1.911h-3.822Z" transform="translate(-548.96 -774.389)"/><path d="M212.273,825.035h3.822v1.911h-3.822Z" transform="translate(-198.305 -774.389)"/><path d="M461.326,825.035h3.822v1.911h-3.822Z" transform="translate(-432.069 -774.389)"/><path d="M595.381,575.978a2.867,2.867,0,1,0,2.867,2.866A2.867,2.867,0,0,0,595.381,575.978Zm0,3.822a.956.956,0,1,1,.956-.956A.956.956,0,0,1,595.381,579.8Z" transform="translate(-555.204 -540.621)"/></g>
    </symbol>
    <symbol id="icon4" viewBox="0 0 71 57">
        <g transform="translate(0 -49.15)"><path d="M274.793,221.15a5.649,5.649,0,0,0-3.438,1.174,5.633,5.633,0,0,0-3.424-1.174,5.73,5.73,0,0,0,0,11.461,5.674,5.674,0,0,0,3.438-1.174,5.68,5.68,0,0,0,3.438,1.174,5.73,5.73,0,1,0-.014-11.461Zm-6.862,9.169a3.438,3.438,0,1,1,3.438-3.438A3.436,3.436,0,0,1,267.93,230.319Zm6.862,0a3.311,3.311,0,0,1-1.915-.6,5.62,5.62,0,0,0,0-5.674,3.311,3.311,0,0,1,1.915-.6,3.438,3.438,0,1,1,0,6.876Z" transform="translate(-225.554 -147.961)"/><rect width="6.876" height="2.292" transform="translate(6.876 96.097)"/><rect width="6.876" height="2.292" transform="translate(19.469 96.097)"/><rect width="6.876" height="2.292" transform="translate(32.062 96.097)"/><rect width="6.876" height="2.292" transform="translate(44.654 96.097)"/><rect width="13.739" height="2.292" transform="translate(6.876 77.773)"/><rect width="29.77" height="2.292" transform="translate(6.876 86.928)"/><path d="M65.27,49.15H14.885a5.738,5.738,0,0,0-5.73,5.73V67.473H5.73A5.738,5.738,0,0,0,0,73.2v27.478a5.738,5.738,0,0,0,5.73,5.73H56.115a5.738,5.738,0,0,0,5.73-5.73V88.088H65.27A5.738,5.738,0,0,0,71,82.358V54.866A5.726,5.726,0,0,0,65.27,49.15Zm-5.716,51.531a3.436,3.436,0,0,1-3.438,3.438H5.73a3.436,3.436,0,0,1-3.438-3.438V73.189A3.436,3.436,0,0,1,5.73,69.751H56.115a3.436,3.436,0,0,1,3.438,3.438Zm9.155-18.323A3.436,3.436,0,0,1,65.27,85.8H61.831V73.2a5.738,5.738,0,0,0-5.73-5.73H11.447V62.889H68.708Zm0-21.761H11.447V58.3H68.708Zm0-4.584H11.447V54.866a3.436,3.436,0,0,1,3.438-3.438H65.27a3.436,3.436,0,0,1,3.438,3.438Z"/></g>
    </symbol>
    <symbol id="icon5" viewBox="0 0 61 71">
        <path d="M-4992.349,11670.789a4.656,4.656,0,0,1-4.651-4.651v-60.483a4.657,4.657,0,0,1,4.651-4.653c35.757,0,33.932-.012,34.1.023.5.1-.442-.718,14.01,13.733a1.165,1.165,0,0,1,.465.929v19.132a15.275,15.275,0,0,1,7.27,13,15.285,15.285,0,0,1-15.269,15.266,15.284,15.284,0,0,1-15.266-15.266,15.29,15.29,0,0,1,12.5-15.014v-8.538a1.164,1.164,0,0,0-1.163-1.163h-7.706v8.576a1.16,1.16,0,0,1-1.163,1.163h-10.468v7.416h5.234a1.162,1.162,0,0,1,1.163,1.163,1.16,1.16,0,0,1-1.163,1.162h-15.266a3.491,3.491,0,0,1-3.489-3.488v-14.829a3.494,3.494,0,0,1,3.489-3.491h29.369a3.5,3.5,0,0,1,3.491,3.491v8.292a15.208,15.208,0,0,1,6.1,1.086v-16.794h-8.886a4.655,4.655,0,0,1-4.651-4.651v-8.869h-32.714a2.328,2.328,0,0,0-2.326,2.325v60.483a2.328,2.328,0,0,0,2.326,2.326h43.909a2.328,2.328,0,0,0,2.325-2.326,1.164,1.164,0,0,1,1.163-1.165,1.162,1.162,0,0,1,1.163,1.165,4.657,4.657,0,0,1-4.651,4.651Zm27.644-22.972a12.955,12.955,0,0,0,12.937,12.94,12.954,12.954,0,0,0,12.94-12.94,12.954,12.954,0,0,0-12.94-12.94A12.955,12.955,0,0,0-4964.7,11647.817Zm-21.52-8.723a1.164,1.164,0,0,0,1.163,1.163h7.706v-7.416h-8.869Zm11.195-8.579h9.305v-7.413h-9.305Zm-11.195-6.25v6.25h8.869v-7.413h-7.706A1.164,1.164,0,0,0-4986.224,11624.266Zm28.915-12.067a2.327,2.327,0,0,0,2.326,2.325h7.226l-9.551-9.551Zm-30.078,46.67a1.164,1.164,0,0,1-1.163-1.165,1.164,1.164,0,0,1,1.163-1.163h14.25a1.164,1.164,0,0,1,1.163,1.163,1.164,1.164,0,0,1-1.163,1.165Zm31.943-3.172v-2.964h-2.223v-1.687h2.223v-1.47h-2.223v-1.687h2.223v-7.832h5.767a5.866,5.866,0,0,1,3.986,1.28,4.343,4.343,0,0,1,1.473,3.459,4.436,4.436,0,0,1-1.415,3.526,5.923,5.923,0,0,1-4.013,1.254h-3.749v1.47h3.6v1.688h-3.6v2.964Zm2.05-7.809h3.717a3.664,3.664,0,0,0,2.537-.785,2.934,2.934,0,0,0,.87-2.293,2.9,2.9,0,0,0-.9-2.212,3.473,3.473,0,0,0-2.44-.855h-3.781Zm-33.994,2.255a1.163,1.163,0,0,1-1.163-1.162,1.164,1.164,0,0,1,1.163-1.163h11.341a1.164,1.164,0,0,1,1.163,1.163,1.163,1.163,0,0,1-1.163,1.162Z" transform="translate(4997.5 -11600.501)" stroke="rgba(0,0,0,0)" stroke-width="1"/>
    </symbol>
</svg>