<svg width="0" height="0" xmlns="http://www.w3.org/2000/svg">
    <symbol id="q" viewBox="0 0 18 15">
        <path d="M5.632,24.432a3.377,3.377,0,0,0-2.464,1.056,3.308,3.308,0,0,0-1.056,2.4,3.6,3.6,0,0,0,.864,2.336,2.809,2.809,0,0,0,2.08,1.12,5.731,5.731,0,0,1-1.12,2.88A11.99,11.99,0,0,1,1.28,36.656l1.344,2.368a12.2,12.2,0,0,0,4.608-4.448,11.356,11.356,0,0,0,1.92-6.112A4.072,4.072,0,0,0,8.1,25.552,3.287,3.287,0,0,0,5.632,24.432Zm9.984,0a3.274,3.274,0,0,0-2.432,1.056,3.357,3.357,0,0,0-1.024,2.4,3.6,3.6,0,0,0,.864,2.336,2.809,2.809,0,0,0,2.08,1.12,6.218,6.218,0,0,1-1.184,2.88,11.99,11.99,0,0,1-2.656,2.432l1.344,2.368a11.979,11.979,0,0,0,4.576-4.448,11.492,11.492,0,0,0,1.888-6.112,4.147,4.147,0,0,0-1.024-2.912A3.189,3.189,0,0,0,15.616,24.432Z" transform="translate(-1.28 -24.432)"/>
    </symbol>
    <symbol id="f" viewBox="0 0 32 28">
        <path d="M18.063-20.281a2.749,2.749,0,0,0-.812,1.969,2.749,2.749,0,0,0,.813,1.969,2.632,2.632,0,0,0,1.969.844A2.632,2.632,0,0,0,22-16.344a2.749,2.749,0,0,0,.813-1.969h0A2.749,2.749,0,0,0,22-20.281a2.632,2.632,0,0,0-1.969-.844A2.632,2.632,0,0,0,18.063-20.281ZM26-2h2V-14L20-8,10-16,4-10v8H26Zm4-24H2a1.922,1.922,0,0,0-1.406.594A1.922,1.922,0,0,0,0-24V0A1.922,1.922,0,0,0,.594,1.406,1.922,1.922,0,0,0,2,2H30a1.922,1.922,0,0,0,1.406-.594A1.922,1.922,0,0,0,32,0V-24a1.922,1.922,0,0,0-.594-1.406A1.922,1.922,0,0,0,30-26ZM30,0H2V-24H30Z" transform="translate(0 26)"/>
    </symbol>
</svg>