<svg width="0" height="0" xmlns="http://www.w3.org/2000/svg">
    <symbol id="q" viewBox="0 0 18 15">
        <path d="M5.632,24.432a3.377,3.377,0,0,0-2.464,1.056,3.308,3.308,0,0,0-1.056,2.4,3.6,3.6,0,0,0,.864,2.336,2.809,2.809,0,0,0,2.08,1.12,5.731,5.731,0,0,1-1.12,2.88A11.99,11.99,0,0,1,1.28,36.656l1.344,2.368a12.2,12.2,0,0,0,4.608-4.448,11.356,11.356,0,0,0,1.92-6.112A4.072,4.072,0,0,0,8.1,25.552,3.287,3.287,0,0,0,5.632,24.432Zm9.984,0a3.274,3.274,0,0,0-2.432,1.056,3.357,3.357,0,0,0-1.024,2.4,3.6,3.6,0,0,0,.864,2.336,2.809,2.809,0,0,0,2.08,1.12,6.218,6.218,0,0,1-1.184,2.88,11.99,11.99,0,0,1-2.656,2.432l1.344,2.368a11.979,11.979,0,0,0,4.576-4.448,11.492,11.492,0,0,0,1.888-6.112,4.147,4.147,0,0,0-1.024-2.912A3.189,3.189,0,0,0,15.616,24.432Z" transform="translate(-1.28 -24.432)"/>
    </symbol>
    <symbol id="f" viewBox="0 0 32 28">
        <path d="M18.063-20.281a2.749,2.749,0,0,0-.812,1.969,2.749,2.749,0,0,0,.813,1.969,2.632,2.632,0,0,0,1.969.844A2.632,2.632,0,0,0,22-16.344a2.749,2.749,0,0,0,.813-1.969h0A2.749,2.749,0,0,0,22-20.281a2.632,2.632,0,0,0-1.969-.844A2.632,2.632,0,0,0,18.063-20.281ZM26-2h2V-14L20-8,10-16,4-10v8H26Zm4-24H2a1.922,1.922,0,0,0-1.406.594A1.922,1.922,0,0,0,0-24V0A1.922,1.922,0,0,0,.594,1.406,1.922,1.922,0,0,0,2,2H30a1.922,1.922,0,0,0,1.406-.594A1.922,1.922,0,0,0,32,0V-24a1.922,1.922,0,0,0-.594-1.406A1.922,1.922,0,0,0,30-26ZM30,0H2V-24H30Z" transform="translate(0 26)"/>
    </symbol>
    <symbol id="a" viewBox="0 0 75 63">
        <g transform="translate(0 -40.061)"><path d="M242.35,197.11A2.348,2.348,0,0,1,240,194.763V178.328a2.348,2.348,0,1,1,4.7,0v16.435A2.348,2.348,0,0,1,242.35,197.11Z" transform="translate(-204.78 -115.972)" fill="#e84242"/><path d="M74.147,92.926,44.917,44.212a8.578,8.578,0,0,0-14.694,0L.994,92.926a6.954,6.954,0,0,0,5.955,10.517H68.192a6.954,6.954,0,0,0,5.955-10.517Zm-5.955,5.821H6.949A2.252,2.252,0,0,1,5.02,95.342L34.25,46.627a3.877,3.877,0,0,1,6.641,0L70.12,95.342A2.252,2.252,0,0,1,68.192,98.747Z" transform="translate(0)" fill="#e84242"/><circle cx="3.522" cy="3.522" r="3.522" transform="translate(34.048 83.486)" fill="#e84242"/></g>
    </symbol>
    <symbol id="Ñ" viewBox="0 0 72 53">
        <path d="M71.37,70.554a2.776,2.776,0,0,0-3.926,0l-45,45-17.7-17.7a2.776,2.776,0,1,0-3.926,3.926l19.664,19.664a2.777,2.777,0,0,0,3.926,0L71.37,74.48A2.776,2.776,0,0,0,71.37,70.554Z" transform="translate(-0.001 -69.741)" fill="#8bc540"/>
    </symbol>
</svg>